<?xml version="1.0" encoding="UTF-8"?>
<svg id="Capa_1" xmlns="http://www.w3.org/2000/svg" version="1.1" viewBox="0 0 307.27 65.88">
  <!-- Generator: Adobe Illustrator 29.1.0, SVG Export Plug-In . SVG Version: 2.1.0 Build 142)  -->
  <defs>
    <style>
      .st0 {
        fill: #1e1735;
      }
    </style>
  </defs>
  <g>
    <path class="st0" d="M56.1,46.37l.37-5.38.41-9.18.17-7.07,1.97.02,1.92-.02c-.16,2.22-.31,4.55-.44,6.97-.13,2.43-.24,5.08-.32,7.96-.08,2.88-.12,5.11-.12,6.71-.9-.03-1.54-.04-1.92-.04-.36,0-1.04.01-2.05.04ZM57.09,20.08c.04-1.34.06-2.35.06-3.03.78.03,1.47.04,2.07.04.75,0,1.44-.01,2.05-.04-.03.44-.07,1.45-.13,3.03-.77-.01-1.43-.02-1.99-.02s-1.25,0-2.07.02Z"/>
    <path class="st0" d="M65.8,46.37l.23-3.1c.04-.65.1-1.69.17-3.1l.51-13.01c.01-1.07.02-1.88.02-2.43.67.01,1.28.02,1.84.02.6,0,1.19,0,1.77-.02l-.19,3.97c.48-.8.92-1.43,1.31-1.9.39-.47.91-.9,1.55-1.3s1.37-.71,2.19-.93,1.67-.33,2.55-.33c.61,0,1.22.07,1.82.21.6.14,1.15.34,1.65.6s.94.55,1.3.88c.36.33.65.68.88,1.07.22.38.44.94.67,1.67.87-1.64,1.95-2.78,3.26-3.44s2.76-.98,4.37-.98c1.02,0,2.02.16,2.98.49.96.33,1.73.8,2.3,1.41s.95,1.25,1.14,1.91.29,1.33.29,2-.05,1.71-.15,3.08c-.1,1.37-.21,3.45-.34,6.25-.13,2.8-.2,5.13-.21,6.99-.76-.03-1.35-.04-1.77-.04-.46,0-1.13.01-2.03.04.16-1.92.29-4.02.41-6.28l.28-5.3c.07-1.28.11-2.38.11-3.31,0-.83-.09-1.48-.26-1.94s-.45-.88-.82-1.26c-.38-.37-.84-.65-1.4-.85-.56-.19-1.19-.29-1.9-.29-.57,0-1.1.06-1.58.19-.46.13-.9.32-1.32.58-.47.27-.89.61-1.26,1.01-.37.39-.68.82-.94,1.31-.27.5-.49,1.09-.66,1.78-.21.86-.36,1.91-.45,3.15-.1,1.32-.18,3.07-.23,5.23l-.17,5.98c-.83-.03-1.45-.04-1.86-.04-.38,0-1.03.01-1.95.04.14-1.77.26-3.58.34-5.45l.26-5.17c.07-1.59.11-2.95.11-4.08,0-.73-.07-1.34-.21-1.85-.14-.51-.41-.97-.8-1.39-.39-.42-.86-.74-1.42-.96-.56-.22-1.17-.33-1.84-.33-.71,0-1.39.12-2.03.37-.64.25-1.23.62-1.77,1.1-.54.48-1,1.08-1.37,1.78-.37.7-.66,1.63-.86,2.78-.21,1.15-.37,3.14-.49,5.99-.12,2.85-.18,5.25-.18,7.2-.91-.03-1.54-.04-1.88-.04-.37,0-1.02.01-1.95.04Z"/>
    <path class="st0" d="M102.92,56.03c.29-3.67.55-8.67.81-14.99.25-6.32.39-11.49.42-15.5,2.33-.5,4.2-.84,5.6-1.01,1.4-.18,2.81-.27,4.22-.27,2.22,0,4.15.35,5.79,1.06s2.91,1.94,3.82,3.72c.91,1.77,1.37,3.78,1.37,6.01,0,1.55-.21,3.05-.64,4.5-.43,1.45-1.08,2.74-1.96,3.88-.88,1.14-1.93,2-3.17,2.57-1.24.58-2.62.86-4.15.86-.91,0-1.79-.11-2.63-.33-.84-.22-1.57-.51-2.19-.86-.62-.36-1.14-.75-1.56-1.2s-.93-1.1-1.53-1.99l-.26,8.46c-.06,1.38-.09,2.38-.09,2.99v2.11c-.72-.03-1.35-.04-1.89-.04-.5,0-1.15.01-1.96.04ZM107.81,28.07l-.15,1.62-.11,2.22c-.06,1.17-.1,2.12-.13,2.85-.03.73-.04,1.25-.04,1.55,0,1.05.11,2.05.33,2.99.22.94.66,1.8,1.32,2.57.66.78,1.44,1.36,2.34,1.76.9.4,1.82.6,2.78.6,1.34,0,2.55-.37,3.64-1.11,1.09-.74,1.94-1.84,2.55-3.31.61-1.47.92-3.07.92-4.81s-.32-3.26-.96-4.53-1.5-2.18-2.58-2.74c-1.08-.56-2.31-.84-3.67-.84-1.95,0-4.03.39-6.24,1.17Z"/>
    <path class="st0" d="M129.14,46.37c.28-4.39.56-9.58.83-15.59.18-4.37.32-8.89.4-13.56l1.99.02c.41,0,1.05,0,1.9-.02l-.66,12.54-.47,12.69-.08,3.93c-.84-.03-1.47-.04-1.88-.04-.17,0-.85.01-2.03.04Z"/>
    <path class="st0" d="M156.63,42.98c-.17.78-.34,1.78-.51,2.99-1.37.34-2.55.57-3.56.69-1,.12-2,.18-3,.18-1.78,0-3.38-.21-4.79-.64-1.42-.43-2.63-1.17-3.64-2.23-1.01-1.06-1.74-2.27-2.18-3.64s-.66-2.81-.66-4.34c0-2.12.41-4.09,1.22-5.91.81-1.81,2.03-3.24,3.66-4.28,1.63-1.04,3.7-1.56,6.2-1.56,1.3,0,2.53.19,3.72.57,1.18.38,2.16.95,2.95,1.72.78.77,1.39,1.72,1.82,2.85.43,1.13.64,2.37.64,3.71,0,.51-.04,1.01-.13,1.49h-16.29c-.06.78-.09,1.38-.09,1.79,0,1.5.31,2.87.94,4.13.63,1.26,1.55,2.21,2.78,2.86,1.22.65,2.63.97,4.23.97,1.84,0,4.07-.46,6.71-1.37ZM142.24,32.81h12.73c-.01-.9-.07-1.59-.17-2.09s-.29-1.01-.56-1.55c-.27-.53-.64-1-1.1-1.39s-1.02-.69-1.67-.9c-.65-.21-1.35-.31-2.1-.31-.81,0-1.58.11-2.32.34-.73.23-1.38.54-1.94.94-.56.4-1.04.86-1.43,1.4-.39.53-.68,1.05-.88,1.55s-.38,1.17-.57,2.01Z"/>
    <path class="st0" d="M162.1,46.37l.23-3.1c.04-.65.1-1.69.17-3.1l.51-13.01c.01-1.07.02-1.88.02-2.43.67.01,1.28.02,1.84.02.6,0,1.19,0,1.77-.02l-.19,3.97c.48-.8.92-1.43,1.31-1.9.39-.47.91-.9,1.55-1.3s1.37-.71,2.19-.93,1.67-.33,2.55-.33c.61,0,1.22.07,1.82.21.6.14,1.15.34,1.65.6s.94.55,1.3.88c.36.33.65.68.88,1.07.22.38.44.94.67,1.67.87-1.64,1.95-2.78,3.26-3.44s2.76-.98,4.37-.98c1.02,0,2.02.16,2.98.49.96.33,1.73.8,2.3,1.41s.95,1.25,1.14,1.91.29,1.33.29,2-.05,1.71-.15,3.08c-.1,1.37-.21,3.45-.34,6.25-.13,2.8-.2,5.13-.21,6.99-.76-.03-1.35-.04-1.77-.04-.46,0-1.13.01-2.03.04.16-1.92.29-4.02.41-6.28l.28-5.3c.07-1.28.11-2.38.11-3.31,0-.83-.09-1.48-.26-1.94s-.45-.88-.82-1.26c-.38-.37-.84-.65-1.4-.85-.56-.19-1.19-.29-1.9-.29-.57,0-1.1.06-1.58.19-.46.13-.9.32-1.32.58-.47.27-.89.61-1.26,1.01-.37.39-.68.82-.94,1.31-.27.5-.49,1.09-.66,1.78-.21.86-.36,1.91-.45,3.15-.1,1.32-.18,3.07-.23,5.23l-.17,5.98c-.83-.03-1.45-.04-1.86-.04-.38,0-1.03.01-1.95.04.14-1.77.26-3.58.34-5.45l.26-5.17c.07-1.59.11-2.95.11-4.08,0-.73-.07-1.34-.21-1.85-.14-.51-.41-.97-.8-1.39-.39-.42-.86-.74-1.42-.96-.56-.22-1.17-.33-1.84-.33-.71,0-1.39.12-2.03.37-.64.25-1.23.62-1.77,1.1-.54.48-1,1.08-1.37,1.78-.37.7-.66,1.63-.86,2.78-.21,1.15-.37,3.14-.49,5.99-.12,2.85-.18,5.25-.18,7.2-.91-.03-1.54-.04-1.88-.04-.37,0-1.02.01-1.95.04Z"/>
    <path class="st0" d="M217.37,42.98c-.17.78-.34,1.78-.51,2.99-1.37.34-2.55.57-3.56.69-1,.12-2,.18-3,.18-1.78,0-3.38-.21-4.79-.64-1.42-.43-2.63-1.17-3.64-2.23-1.01-1.06-1.74-2.27-2.18-3.64s-.66-2.81-.66-4.34c0-2.12.41-4.09,1.22-5.91.81-1.81,2.03-3.24,3.66-4.28,1.63-1.04,3.7-1.56,6.2-1.56,1.3,0,2.53.19,3.72.57,1.18.38,2.16.95,2.95,1.72.78.77,1.39,1.72,1.82,2.85.43,1.13.64,2.37.64,3.71,0,.51-.04,1.01-.13,1.49h-16.29c-.06.78-.09,1.38-.09,1.79,0,1.5.31,2.87.94,4.13.63,1.26,1.55,2.21,2.78,2.86,1.22.65,2.63.97,4.23.97,1.84,0,4.07-.46,6.71-1.37ZM202.97,32.81h12.73c-.01-.9-.07-1.59-.17-2.09s-.29-1.01-.56-1.55c-.27-.53-.64-1-1.1-1.39s-1.02-.69-1.67-.9c-.65-.21-1.35-.31-2.1-.31-.81,0-1.58.11-2.32.34-.73.23-1.38.54-1.94.94-.56.4-1.04.86-1.43,1.4-.39.53-.68,1.05-.88,1.55s-.38,1.17-.57,2.01Z"/>
    <path class="st0" d="M222.75,46.37c.68-8.93,1.04-16.14,1.06-21.63l1.92.02c.47,0,1.09,0,1.86-.02l-.28,4.27c.36-.6.64-1.06.85-1.38.21-.32.5-.66.85-1.01s.78-.69,1.26-.99c.48-.31,1.05-.56,1.71-.77.65-.21,1.32-.36,2-.46s1.35-.15,2.02-.15c1.22,0,2.41.15,3.55.45,1.14.3,2.08.79,2.81,1.46.73.68,1.23,1.43,1.47,2.27.25.84.37,1.74.37,2.71,0,.19,0,.54-.02,1.07-.01.53-.04,1.22-.08,2.07l-.42,8.95c-.03.85-.05,1.9-.06,3.14-.64-.03-1.25-.04-1.82-.04-.7,0-1.35.01-1.97.04.14-1.72.25-3.38.32-4.98l.28-4.98c.09-1.71.13-3,.13-3.87,0-1.25-.21-2.25-.64-3-.43-.75-1.11-1.32-2.05-1.73s-2-.61-3.16-.61c-1.65,0-3.07.39-4.26,1.17-1.08.73-1.92,1.76-2.52,3.1-.41.95-.71,2.36-.88,4.23-.22,2.24-.37,5.79-.46,10.66-.79-.03-1.41-.04-1.85-.04s-1.11.01-2,.04Z"/>
    <path class="st0" d="M260.17,43.56c-.16.7-.33,1.62-.51,2.78-.97.23-1.74.37-2.31.43-.57.06-1.11.09-1.62.09-1.27,0-2.29-.16-3.06-.48-.78-.32-1.37-.83-1.78-1.54-.41-.7-.62-1.66-.62-2.87,0-.16,0-.43.02-.83.01-.4.09-1.79.22-4.16l.52-9.57h-2.85c.06-.6.11-1.45.15-2.56h2.91c.07-.8.14-2.16.22-4.08,1.33-.26,2.46-.5,3.39-.73-.1,2.11-.15,3.71-.17,4.81h5.94c-.07.9-.11,1.75-.13,2.56h-5.91l-.57,12.02-.02.92c0,1.04.12,1.82.35,2.34.23.52.59.89,1.06,1.12s.96.34,1.47.34c.35,0,.74-.03,1.15-.08.41-.06,1.14-.22,2.17-.49Z"/>
    <path class="st0" d="M264.67,28.18c.13-.63.26-1.55.41-2.78,1.71-.44,3.19-.74,4.45-.91,1.26-.16,2.49-.25,3.68-.25,1.28,0,2.48.12,3.6.35s2.05.62,2.79,1.14c.74.53,1.23,1.13,1.47,1.81.24.68.36,1.42.36,2.2,0,.98-.07,2.63-.22,4.94-.15,2.31-.26,4.45-.34,6.42-.08,1.96-.12,3.72-.12,5.25-.77-.03-1.4-.04-1.88-.04-.46,0-1.1.01-1.95.04l.45-5.83.32-6.9c-.5.38-.87.65-1.12.81-.25.16-.53.3-.84.44s-.66.26-1.04.38-1.11.33-2.2.63-1.86.53-2.32.68c-.98.31-1.76.63-2.33.94-.57.31-1.05.66-1.43,1.03s-.66.74-.81,1.11c-.19.46-.28.93-.28,1.43,0,.77.23,1.44.68,2.01.46.57,1.03.96,1.72,1.19s1.52.33,2.49.33c.6,0,1.22-.04,1.88-.12.65-.08,1.53-.3,2.63-.64-.2.55-.43,1.4-.68,2.54-1.04.2-1.89.32-2.54.37-.66.05-1.27.07-1.86.07-1.95,0-3.47-.23-4.57-.68-1.1-.46-1.92-1.15-2.46-2.08-.54-.93-.81-1.95-.81-3.04,0-.64.1-1.23.29-1.77.19-.54.45-1.03.78-1.47.33-.44.79-.88,1.4-1.32.6-.44,1.24-.8,1.9-1.09s1.44-.57,2.32-.84,2.3-.65,4.25-1.12c.63-.14,1.16-.29,1.6-.44.44-.15.83-.3,1.17-.44.34-.14.64-.31.9-.5.26-.19.49-.43.71-.71.21-.28.37-.56.47-.84s.15-.57.15-.85c0-.7-.23-1.3-.68-1.79-.46-.5-1.05-.85-1.78-1.05-.73-.2-1.6-.3-2.6-.3-.93,0-1.88.07-2.85.22-.98.15-1.82.33-2.52.53-.7.21-1.58.52-2.64.93Z"/>
    <path class="st0" d="M286.56,46.37c.28-4.39.56-9.58.83-15.59.18-4.37.32-8.89.4-13.56l1.99.02c.41,0,1.05,0,1.9-.02l-.66,12.54-.47,12.69-.08,3.93c-.84-.03-1.47-.04-1.88-.04-.17,0-.85.01-2.03.04Z"/>
  </g>
  <g>
    <path class="st0" d="M37.51,19.78c3.18.1,5.07,2.9,6.18,5.45,2.03,5.04,2.19,10.68.34,15.83-2.87,7.71-10.16,7.72-13.04,0-1.85-5.15-1.69-10.79.34-15.83,1.11-2.55,3-5.36,6.18-5.45h0ZM37.51,21.55c-2.21.09-3.65,2.45-4.4,4.4-1.61,4.43-1.46,9.79.34,14.11,2.22,5.3,5.9,5.31,8.12,0,1.8-4.32,1.95-9.68.34-14.11-.75-1.96-2.2-4.31-4.4-4.4h0Z"/>
    <path class="st0" d="M42.65,24.9c-.1,3.18-2.9,5.07-5.45,6.18-5.04,2.03-10.68,2.19-15.83.34-7.71-2.87-7.72-10.16,0-13.04,5.15-1.85,10.79-1.69,15.83.34,2.55,1.11,5.36,3,5.45,6.18h0ZM40.88,24.9c-.09-2.21-2.45-3.65-4.4-4.4-4.43-1.61-9.79-1.46-14.11.34-5.3,2.22-5.31,5.9,0,8.12,4.32,1.8,9.68,1.95,14.11.34,1.96-.75,4.31-2.2,4.4-4.4h0Z"/>
  </g>
</svg>