<?xml version="1.0" encoding="UTF-8"?>
<svg id="Capa_1" data-name="Capa 1" xmlns="http://www.w3.org/2000/svg" viewBox="0 0 408.96 105.12">
  <defs>
    <style>
      .cls-1 {
        fill: #1e1735;
      }
    </style>
  </defs>
  <path class="cls-1" d="M83.79,64.73l.46-6.66.51-11.36.22-8.75,2.43.03,2.38-.03c-.2,2.75-.38,5.62-.54,8.63-.16,3-.29,6.29-.39,9.84-.1,3.56-.15,6.33-.15,8.3-1.11-.04-1.91-.05-2.38-.05-.44,0-1.29.02-2.54.05ZM85.01,32.2c.05-1.66.08-2.91.08-3.75.97.04,1.82.05,2.56.05.93,0,1.78-.02,2.54-.05-.04.55-.09,1.8-.16,3.75-.95-.02-1.77-.03-2.46-.03s-1.54,0-2.56.03Z"/>
  <path class="cls-1" d="M95.79,64.73l.29-3.83c.05-.81.12-2.09.21-3.83l.63-16.09c.02-1.32.03-2.33.03-3.01.83.02,1.59.03,2.27.03.74,0,1.47,0,2.19-.03l-.24,4.92c.6-.99,1.14-1.77,1.63-2.35.48-.58,1.12-1.12,1.92-1.61s1.7-.88,2.71-1.15,2.07-.41,3.16-.41c.76,0,1.51.09,2.25.26.74.18,1.42.42,2.05.74s1.16.68,1.61,1.08c.45.41.81.85,1.08,1.32.27.48.55,1.16.83,2.06,1.07-2.03,2.42-3.44,4.03-4.25s3.41-1.22,5.4-1.22c1.27,0,2.5.2,3.69.61,1.19.41,2.14.99,2.84,1.74s1.18,1.55,1.41,2.36.36,1.64.36,2.47-.06,2.11-.18,3.81c-.12,1.69-.26,4.27-.42,7.73-.16,3.46-.24,6.35-.26,8.65-.94-.04-1.67-.05-2.2-.05-.56,0-1.4.02-2.51.05.19-2.38.36-4.97.5-7.77l.34-6.55c.09-1.59.13-2.95.13-4.1,0-1.03-.11-1.83-.32-2.4s-.55-1.09-1.02-1.55c-.47-.46-1.04-.81-1.73-1.05-.69-.24-1.47-.36-2.35-.36-.7,0-1.36.08-1.96.24-.56.16-1.11.4-1.64.72-.58.34-1.1.75-1.56,1.25-.46.48-.85,1.02-1.16,1.62-.34.62-.61,1.35-.82,2.2-.26,1.06-.45,2.36-.56,3.89-.12,1.64-.22,3.8-.29,6.47l-.21,7.4c-1.02-.04-1.79-.05-2.3-.05-.48,0-1.28.02-2.41.05.18-2.18.32-4.43.42-6.74l.32-6.4c.09-1.97.13-3.66.13-5.05,0-.9-.09-1.66-.26-2.29-.18-.63-.51-1.2-.99-1.72-.48-.52-1.07-.92-1.76-1.19-.69-.27-1.44-.41-2.27-.41-.88,0-1.72.15-2.51.46-.79.31-1.52.76-2.19,1.36-.67.6-1.23,1.33-1.69,2.21-.46.87-.82,2.02-1.07,3.44-.26,1.42-.46,3.89-.61,7.41-.15,3.52-.22,6.49-.22,8.91-1.13-.04-1.91-.05-2.33-.05-.46,0-1.26.02-2.41.05Z"/>
  <path class="cls-1" d="M141.72,76.68c.35-4.55.69-10.73,1-18.55.31-7.82.48-14.22.52-19.19,2.89-.62,5.2-1.03,6.94-1.25,1.73-.22,3.47-.33,5.22-.33,2.75,0,5.13.44,7.16,1.31s3.6,2.4,4.73,4.6c1.13,2.19,1.69,4.67,1.69,7.44,0,1.92-.26,3.78-.79,5.56-.53,1.79-1.34,3.39-2.42,4.8-1.08,1.41-2.39,2.47-3.93,3.18-1.53.71-3.24,1.07-5.13,1.07-1.13,0-2.21-.14-3.25-.41-1.04-.27-1.94-.63-2.71-1.07-.77-.44-1.41-.93-1.93-1.48s-1.15-1.37-1.89-2.46l-.32,10.46c-.07,1.71-.11,2.94-.11,3.7v2.62c-.89-.04-1.67-.05-2.34-.05-.61,0-1.42.02-2.42.05ZM147.77,42.08l-.18,2.01-.13,2.75c-.07,1.44-.12,2.62-.16,3.53-.04.91-.05,1.55-.05,1.92,0,1.3.14,2.54.41,3.7.27,1.16.82,2.22,1.64,3.18.82.96,1.78,1.69,2.89,2.18,1.11.49,2.25.74,3.44.74,1.66,0,3.16-.46,4.51-1.37,1.35-.92,2.4-2.28,3.16-4.1.76-1.81,1.14-3.8,1.14-5.95s-.4-4.03-1.19-5.6-1.86-2.7-3.2-3.4c-1.34-.7-2.85-1.04-4.55-1.04-2.41,0-4.99.48-7.72,1.45Z"/>
  <path class="cls-1" d="M174.17,64.73c.35-5.43.69-11.86,1.03-19.29.23-5.41.4-11,.5-16.78l2.46.03c.51,0,1.3,0,2.35-.03l-.82,15.51-.58,15.7-.11,4.86c-1.04-.04-1.82-.05-2.33-.05-.21,0-1.05.02-2.51.05Z"/>
  <path class="cls-1" d="M208.18,60.53c-.21.97-.42,2.2-.63,3.7-1.69.42-3.16.71-4.4.86-1.24.15-2.48.22-3.71.22-2.2,0-4.18-.26-5.93-.79-1.75-.53-3.25-1.45-4.51-2.76-1.25-1.31-2.15-2.81-2.7-4.51s-.82-3.48-.82-5.36c0-2.62.5-5.06,1.51-7.31,1-2.25,2.51-4.01,4.53-5.3,2.02-1.29,4.58-1.93,7.68-1.93,1.6,0,3.14.23,4.6.7,1.46.47,2.68,1.18,3.65,2.13.97.95,1.72,2.13,2.25,3.53.53,1.4.79,2.93.79,4.59,0,.63-.05,1.25-.16,1.85h-20.16c-.07.97-.11,1.71-.11,2.22,0,1.85.39,3.55,1.16,5.11.77,1.56,1.92,2.74,3.44,3.54,1.51.8,3.26,1.2,5.23,1.2,2.27,0,5.04-.56,8.3-1.69ZM190.37,47.95h15.75c-.02-1.11-.09-1.97-.21-2.59s-.35-1.26-.69-1.92c-.33-.66-.79-1.23-1.36-1.72s-1.26-.85-2.06-1.11c-.8-.26-1.67-.38-2.6-.38-1,0-1.96.14-2.87.42-.91.28-1.71.67-2.4,1.16-.7.49-1.29,1.07-1.77,1.73-.48.66-.85,1.3-1.08,1.92s-.47,1.44-.7,2.48Z"/>
  <path class="cls-1" d="M214.95,64.73l.29-3.83c.05-.81.12-2.09.21-3.83l.63-16.09c.02-1.32.03-2.33.03-3.01.83.02,1.59.03,2.27.03.74,0,1.47,0,2.19-.03l-.24,4.92c.6-.99,1.14-1.77,1.63-2.35.48-.58,1.12-1.12,1.92-1.61s1.7-.88,2.71-1.15,2.07-.41,3.16-.41c.76,0,1.51.09,2.25.26.74.18,1.42.42,2.05.74s1.16.68,1.61,1.08c.45.41.81.85,1.08,1.32.27.48.55,1.16.83,2.06,1.07-2.03,2.42-3.44,4.03-4.25s3.41-1.22,5.4-1.22c1.27,0,2.5.2,3.69.61,1.19.41,2.14.99,2.84,1.74s1.18,1.55,1.41,2.36.36,1.64.36,2.47-.06,2.11-.18,3.81c-.12,1.69-.26,4.27-.42,7.73-.16,3.46-.24,6.35-.26,8.65-.94-.04-1.67-.05-2.2-.05-.56,0-1.4.02-2.51.05.19-2.38.36-4.97.5-7.77l.34-6.55c.09-1.59.13-2.95.13-4.1,0-1.03-.11-1.83-.32-2.4s-.55-1.09-1.02-1.55c-.47-.46-1.04-.81-1.73-1.05-.69-.24-1.47-.36-2.35-.36-.7,0-1.36.08-1.96.24-.56.16-1.11.4-1.64.72-.58.34-1.1.75-1.56,1.25-.46.48-.85,1.02-1.16,1.62-.34.62-.61,1.35-.82,2.2-.26,1.06-.45,2.36-.56,3.89-.12,1.64-.22,3.8-.29,6.47l-.21,7.4c-1.02-.04-1.79-.05-2.3-.05-.48,0-1.28.02-2.41.05.18-2.18.32-4.43.42-6.74l.32-6.4c.09-1.97.13-3.66.13-5.05,0-.9-.09-1.66-.26-2.29-.18-.63-.51-1.2-.99-1.72-.48-.52-1.07-.92-1.76-1.19-.69-.27-1.44-.41-2.27-.41-.88,0-1.72.15-2.51.46-.79.31-1.52.76-2.19,1.36-.67.6-1.23,1.33-1.69,2.21-.46.87-.82,2.02-1.07,3.44-.26,1.42-.46,3.89-.61,7.41-.15,3.52-.22,6.49-.22,8.91-1.13-.04-1.91-.05-2.33-.05-.46,0-1.26.02-2.41.05Z"/>
  <path class="cls-1" d="M283.34,60.53c-.21.97-.42,2.2-.63,3.7-1.69.42-3.16.71-4.4.86-1.24.15-2.48.22-3.71.22-2.2,0-4.18-.26-5.93-.79-1.75-.53-3.25-1.45-4.51-2.76-1.25-1.31-2.15-2.81-2.7-4.51s-.82-3.48-.82-5.36c0-2.62.5-5.06,1.51-7.31,1-2.25,2.51-4.01,4.53-5.3,2.02-1.29,4.58-1.93,7.68-1.93,1.6,0,3.14.23,4.6.7,1.46.47,2.68,1.18,3.65,2.13.97.95,1.72,2.13,2.25,3.53.53,1.4.79,2.93.79,4.59,0,.63-.05,1.25-.16,1.85h-20.16c-.07.97-.11,1.71-.11,2.22,0,1.85.39,3.55,1.16,5.11.77,1.56,1.92,2.74,3.44,3.54,1.51.8,3.26,1.2,5.23,1.2,2.27,0,5.04-.56,8.3-1.69ZM265.53,47.95h15.75c-.02-1.11-.09-1.97-.21-2.59s-.35-1.26-.69-1.92c-.33-.66-.79-1.23-1.36-1.72s-1.26-.85-2.06-1.11c-.8-.26-1.67-.38-2.6-.38-1,0-1.96.14-2.87.42-.91.28-1.71.67-2.4,1.16-.7.49-1.29,1.07-1.77,1.73-.48.66-.85,1.3-1.08,1.92s-.47,1.44-.7,2.48Z"/>
  <path class="cls-1" d="M290,64.73c.84-11.05,1.28-19.97,1.32-26.77l2.38.03c.58,0,1.35,0,2.3-.03l-.35,5.29c.44-.74.79-1.31,1.06-1.7.26-.4.62-.82,1.06-1.26s.96-.85,1.56-1.23c.6-.38,1.3-.7,2.12-.95.81-.26,1.63-.45,2.47-.57s1.67-.18,2.5-.18c1.52,0,2.98.18,4.39.55,1.41.37,2.57.97,3.48,1.81.91.84,1.52,1.78,1.82,2.81.31,1.04.46,2.16.46,3.36,0,.23,0,.67-.03,1.32-.02.65-.05,1.51-.1,2.56l-.52,11.07c-.04,1.06-.06,2.35-.08,3.89-.79-.04-1.54-.05-2.25-.05-.86,0-1.68.02-2.43.05.18-2.13.31-4.18.4-6.16l.35-6.16c.11-2.11.16-3.71.16-4.78,0-1.55-.27-2.79-.79-3.71-.53-.93-1.38-1.64-2.54-2.14s-2.47-.75-3.92-.75c-2.05,0-3.8.48-5.27,1.45-1.34.9-2.38,2.18-3.12,3.83-.51,1.18-.87,2.92-1.08,5.23-.27,2.77-.46,7.16-.56,13.19-.98-.04-1.75-.05-2.29-.05s-1.37.02-2.47.05Z"/>
  <path class="cls-1" d="M336.3,61.24c-.19.86-.41,2.01-.63,3.44-1.2.28-2.15.46-2.85.53-.7.07-1.37.11-2.01.11-1.57,0-2.83-.2-3.79-.59-.96-.4-1.7-1.03-2.21-1.9-.51-.87-.77-2.06-.77-3.55,0-.19,0-.54.03-1.03.02-.49.11-2.21.27-5.15l.65-11.84h-3.53c.07-.74.13-1.8.19-3.17h3.6c.09-.99.18-2.67.27-5.05,1.65-.32,3.05-.62,4.19-.9-.12,2.61-.19,4.59-.21,5.95h7.34c-.09,1.11-.14,2.17-.16,3.17h-7.32l-.71,14.88-.03,1.14c0,1.29.15,2.25.44,2.89.29.64.73,1.11,1.31,1.39s1.19.42,1.82.42c.44,0,.91-.04,1.42-.11.51-.07,1.41-.27,2.69-.61Z"/>
  <path class="cls-1" d="M341.88,42.21c.16-.78.33-1.92.5-3.44,2.11-.55,3.95-.92,5.51-1.12,1.56-.2,3.08-.3,4.56-.3,1.59,0,3.07.15,4.45.44s2.53.76,3.45,1.41c.92.65,1.52,1.4,1.82,2.25.3.85.45,1.75.45,2.72,0,1.22-.09,3.26-.28,6.12-.18,2.86-.32,5.51-.42,7.94-.1,2.43-.14,4.6-.14,6.5-.95-.04-1.73-.05-2.33-.05-.56,0-1.37.02-2.41.05l.56-7.21.4-8.54c-.62.48-1.08.81-1.39,1-.31.19-.66.37-1.04.54s-.82.33-1.28.48-1.38.41-2.72.78-2.31.65-2.87.85c-1.22.39-2.18.78-2.88,1.16-.71.39-1.3.81-1.77,1.27s-.81.92-1,1.37c-.23.56-.34,1.15-.34,1.77,0,.95.28,1.78.85,2.48.56.71,1.27,1.19,2.13,1.47s1.88.41,3.08.41c.74,0,1.51-.05,2.33-.15.81-.1,1.89-.37,3.25-.8-.25.68-.53,1.73-.85,3.14-1.29.25-2.33.4-3.14.46-.81.06-1.58.09-2.3.09-2.41,0-4.3-.28-5.66-.85-1.36-.56-2.37-1.42-3.04-2.58-.67-1.15-1-2.41-1-3.77,0-.79.12-1.52.36-2.19.24-.67.56-1.28.96-1.82.41-.55.98-1.09,1.73-1.64.75-.55,1.53-1,2.35-1.35s1.78-.7,2.87-1.04,2.85-.81,5.26-1.39c.78-.18,1.44-.36,1.98-.54.55-.18,1.03-.37,1.45-.54.42-.18.79-.38,1.11-.62.32-.24.61-.53.87-.87.26-.34.46-.69.58-1.04s.18-.7.18-1.06c0-.86-.28-1.6-.85-2.22-.56-.62-1.3-1.05-2.21-1.29-.91-.25-1.98-.37-3.21-.37-1.14,0-2.32.09-3.53.28-1.21.18-2.25.41-3.12.66-.87.26-1.96.64-3.26,1.15Z"/>
  <path class="cls-1" d="M368.97,64.73c.35-5.43.69-11.86,1.03-19.29.23-5.41.4-11,.5-16.78l2.46.03c.51,0,1.3,0,2.35-.03l-.82,15.51-.58,15.7-.11,4.86c-1.04-.04-1.82-.05-2.33-.05-.21,0-1.05.02-2.51.05Z"/>
  <path class="cls-1" d="M60.78,31.82c3.94.12,6.27,3.59,7.64,6.75,2.52,6.24,2.71,13.21.42,19.59-3.55,9.53-12.58,9.55-16.13,0-2.28-6.38-2.09-13.35.42-19.59,1.37-3.15,3.71-6.63,7.64-6.75h0ZM60.78,34.01c-2.73.12-4.52,3.03-5.45,5.45-1.99,5.49-1.8,12.11.42,17.46,2.74,6.55,7.3,6.57,10.05,0,2.23-5.35,2.41-11.97.42-17.46-.93-2.42-2.72-5.33-5.45-5.45h0Z"/>
  <path class="cls-1" d="M67.14,38.16c-.12,3.94-3.59,6.27-6.75,7.64-6.24,2.52-13.21,2.71-19.59.42-9.53-3.55-9.55-12.58,0-16.13,6.38-2.28,13.35-2.09,19.59.42,3.15,1.37,6.63,3.71,6.75,7.64h0ZM64.95,38.16c-.12-2.73-3.03-4.52-5.45-5.45-5.49-1.99-12.11-1.8-17.46.42-6.55,2.74-6.57,7.3,0,10.05,5.35,2.23,11.97,2.41,17.46.42,2.42-.93,5.33-2.72,5.45-5.45h0Z"/>
</svg>